HIERARCHY
ROOT Hips
{
 OFFSET 0.000000 0.000000 0.000000
 CHANNELS 6 Xposition Yposition Zposition Yrotation Xrotation Zrotation
 JOINT Chest
 {
  OFFSET 0.000000 9.581000 -0.001100
  CHANNELS 3 Yrotation Xrotation Zrotation
  JOINT Chest2
  {
   OFFSET 0.000000 9.561100 0.002200
   CHANNELS 3 Yrotation Xrotation Zrotation
   JOINT Chest3
   {
    OFFSET 0.000000 9.521100 0.000000
    CHANNELS 3 Yrotation Xrotation Zrotation
    JOINT Chest4
    {
     OFFSET 0.000000 9.511400 0.000000
     CHANNELS 3 Yrotation Xrotation Zrotation
     JOINT Neck
     {
      OFFSET 0.000000 14.375100 0.000000
      CHANNELS 3 Yrotation Xrotation Zrotation
      JOINT Head
      {
       OFFSET 0.000000 8.901200 0.004600
       CHANNELS 3 Yrotation Xrotation Zrotation
       End Site
       {
        OFFSET 0.000000 16.962200 0.002400
       }
      }
     }
     JOINT RightCollar
     {
      OFFSET -2.920100 9.518800 0.000000
      CHANNELS 3 Yrotation Xrotation Zrotation
      JOINT RightShoulder
      {
       OFFSET -13.664500 0.000000 0.000000
       CHANNELS 3 Yrotation Xrotation Zrotation
       JOINT RightElbow
       {
        OFFSET 0.000000 -29.999200 0.000000
        CHANNELS 3 Yrotation Xrotation Zrotation
        JOINT RightWrist
        {
         OFFSET 0.000000 -24.253600 0.000000
         CHANNELS 3 Yrotation Xrotation Zrotation
         End Site
         {
          OFFSET 0.000000 -17.918900 0.000000
         }
        }
       }
      }
     }
     JOINT LeftCollar
     {
      OFFSET 2.920100 9.518800 0.000000
      CHANNELS 3 Yrotation Xrotation Zrotation
      JOINT LeftShoulder
      {
       OFFSET 13.664500 0.000000 0.000000
       CHANNELS 3 Yrotation Xrotation Zrotation
       JOINT LeftElbow
       {
        OFFSET 0.000000 -29.999200 0.000000
        CHANNELS 3 Yrotation Xrotation Zrotation
        JOINT LeftWrist
        {
         OFFSET 0.000000 -24.253600 0.000000
         CHANNELS 3 Yrotation Xrotation Zrotation
         End Site
         {
          OFFSET 0.000000 -17.918900 0.000000
         }
        }
       }
      }
     }
    }
   }
  }
 }
 JOINT RightHip
 {
  OFFSET -7.797300 0.005300 0.000500
  CHANNELS 3 Yrotation Xrotation Zrotation
  JOINT RightKnee
  {
   OFFSET 0.000000 -40.663400 -0.000500
   CHANNELS 3 Yrotation Xrotation Zrotation
   JOINT RightAnkle
   {
    OFFSET 0.000000 -39.523700 -0.000900
    CHANNELS 3 Yrotation Xrotation Zrotation
    JOINT RightToe
    {
     OFFSET 0.000000 -6.418000 14.485300
     CHANNELS 3 Yrotation Xrotation Zrotation
     End Site
     {
      OFFSET 0.000000 -1.465200 6.326400
     }
    }
   }
  }
 }
 JOINT LeftHip
 {
  OFFSET 7.797300 0.005300 0.000500
  CHANNELS 3 Yrotation Xrotation Zrotation
  JOINT LeftKnee
  {
   OFFSET 0.000000 -40.663400 -0.000500
   CHANNELS 3 Yrotation Xrotation Zrotation
   JOINT LeftAnkle
   {
    OFFSET 0.000000 -39.523700 -0.000900
    CHANNELS 3 Yrotation Xrotation Zrotation
    JOINT LeftToe
    {
     OFFSET 0.000000 -6.418000 14.485300
     CHANNELS 3 Yrotation Xrotation Zrotation
     End Site
     {
      OFFSET 0.000000 -1.465200 6.326400
     }
    }
   }
  }
 }
}
MOTION
Frames: 16
Frame Time: 0.008333
0.000000 86.422400 0.000000 0.000000 -5.767877 0.000000 0.000000 11.653817 0.000000 0.000000 -5.885947 0.000000 0.000000 -0.000000 0.000000 0.000000 -0.000000 0.000000 0.000000 12.528835 0.000000 0.000000 0.711642 0.000000 0.000000 -0.000000 0.000000 0.000000 0.000000 -90.000000 0.000000 -2.309062 0.000000 0.000000 2.309062 0.000000 0.000000 -0.000000 0.000000 0.000000 -0.000000 90.000000 0.000000 -2.309062 0.000000 0.000000 2.309062 0.000000 0.000000 8.520406 0.000000 0.000000 1.905762 0.000000 -0.000000 -4.658285 0.000000 0.000000 -0.000000 0.000000 0.000000 8.520406 0.000000 0.000000 1.905762 0.000000 -0.000000 -4.658285 0.000000 0.000000 -0.000000 0.000000
-23.707219 126.479447 52.385531 -178.877297 -29.657434 -3.279407 -1.341365 19.203048 0.945834 -0.183171 2.273306 0.135175 -0.265594 3.794771 0.218588 -1.165815 16.631540 0.843818 9.275866 18.167664 2.072227 9.734199 -6.123757 0.101368 -9.049868 -2.731789 -4.135612 -18.136817 2.636568 -12.944876 176.187755 -48.341778 -156.463497 -4.269729 -14.854966 -28.260433 -5.017690 -3.154365 2.901228 12.438696 -5.862340 9.531262 162.836519 -62.718434 -179.715250 -15.922872 -20.382008 32.096926 -7.984337 -51.934111 3.093865 -14.765772 70.414447 -17.401049 18.170740 11.776899 5.745502 0.002217 -0.003585 0.000982 -9.256456 -52.223693 -3.014742 37.765888 66.909274 27.728014 2.665780 34.167228 5.039267 0.002651 -0.001770 0.001175
-23.707859 126.479697 52.385354 -178.864221 -29.663037 -3.286118 -1.360869 19.199009 0.942817 -0.193635 2.257072 0.137511 -0.285857 3.765207 0.217481 -1.208779 16.598015 0.837847 9.223016 18.351624 2.072444 9.631045 -5.974021 0.124845 -8.967193 -2.774077 -4.152017 -18.113138 2.492855 -13.325813 176.372109 -49.264664 -156.439596 -4.675176 -14.195660 -27.076164 -4.982818 -3.081910 2.858932 12.552953 -6.080891 9.578103 163.603609 -63.248317 179.631021 -15.883638 -20.669598 32.104693 -7.998180 -51.927154 3.094688 -14.761459 70.416827 -17.391202 18.158729 11.779919 5.736797 0.004267 -0.003381 0.001890 -9.259095 -52.212972 -3.017100 37.771780 66.906775 27.724472 2.669986 34.157626 5.051852 -0.001431 -0.004595 -0.000634
-23.708865 126.479719 52.385570 -178.859164 -29.667322 -3.287532 -1.380763 19.182772 0.938566 -0.199238 2.247343 0.139765 -0.295411 3.749188 0.217750 -1.225412 16.588944 0.833975 9.117604 18.494687 2.072546 9.509450 -5.821543 0.149817 -8.918497 -2.865162 -4.146701 -18.076936 2.294072 -13.704678 176.604847 -50.397487 -156.369426 -5.122067 -13.543615 -25.699166 -5.015427 -3.080584 2.827275 12.671530 -6.302744 9.610053 164.501663 -63.969215 178.845504 -15.825786 -20.948280 32.066471 -8.003315 -51.924655 3.089264 -14.758046 70.423093 -17.381397 18.152085 11.779711 5.728120 0.004100 -0.003443 0.001816 -9.239334 -52.196248 -3.026586 37.742395 66.907231 27.698096 2.662539 34.145122 5.051787 0.003109 -0.001500 0.001377
-23.710154 126.479803 52.385756 -178.856974 -29.673367 -3.286782 -1.404449 19.162236 0.934829 -0.200662 2.240197 0.138977 -0.299961 3.739179 0.217305 -1.248052 16.568785 0.831056 8.993803 18.644163 2.070924 9.367415 -5.663191 0.176905 -8.869420 -2.959242 -4.134626 -18.009217 2.038713 -14.043568 176.826585 -51.747560 -156.182933 -5.554226 -12.925023 -24.207245 -4.990710 -3.034844 2.802948 12.693487 -6.596078 9.595985 165.577389 -64.883794 177.896656 -15.746193 -21.210442 31.990710 -7.996574 -51.921514 3.071859 -14.758012 70.429372 -17.373235 18.180842 11.778188 5.729045 0.007260 -0.002900 0.003217 -9.231858 -52.176146 -3.030533 37.718383 66.916094 27.665648 2.670471 34.107551 5.052912 0.002393 0.006108 0.001060
-23.712323 126.479178 52.387302 -178.853959 -29.672212 -3.282033 -1.425814 19.134513 0.927856 -0.211957 2.229206 0.137519 -0.304886 3.727929 0.216691 -1.272910 16.546122 0.827267 8.851885 18.803906 2.066962 9.205630 -5.494514 0.205563 -8.812116 -3.057090 -4.119540 -17.856289 1.746722 -14.326085 176.938393 -53.308236 -155.824220 -5.915233 -12.345556 -22.725372 -4.983565 -3.027650 2.763865 12.670163 -6.875818 9.582114 166.875113 -65.987150 176.752433 -15.645818 -21.453204 31.886428 -7.979945 -51.926004 3.049629 -14.770796 70.437763 -17.370269 18.122716 11.779549 5.718037 -0.002551 -0.001730 -0.001130 -9.236827 -52.173584 -3.036938 37.724448 66.917389 27.663635 2.669316 34.085514 5.043847 -0.000294 0.004079 -0.000130
-23.713246 126.478936 52.388603 -178.851394 -29.676273 -3.285650 -1.452675 19.108607 0.925648 -0.220832 2.216581 0.135463 -0.310590 3.715681 0.215742 -1.301554 16.521263 0.821596 8.693835 18.982423 2.056948 9.027413 -5.305481 0.231378 -8.740117 -3.159205 -4.104634 -17.556452 1.439232 -14.558053 176.844100 -55.077739 -155.274131 -6.172053 -11.808334 -21.342290 -4.966378 -3.028719 2.709677 12.562046 -7.163524 9.563266 168.441498 -67.270778 175.380470 -15.528435 -21.679473 31.764120 -7.966899 -51.924339 3.031012 -14.761826 70.446473 -17.348837 18.138314 11.779434 5.726114 0.000400 -0.000462 0.000177 -9.255476 -52.167777 -3.031362 37.728975 66.924722 27.661949 2.681497 34.069957 5.044400 -0.001972 0.006736 -0.000874
-23.714660 126.478221 52.391146 -178.850976 -29.676613 -3.286244 -1.486366 19.074579 0.918055 -0.215760 2.216154 0.132488 -0.305075 3.721657 0.215022 -1.356343 16.462608 0.814475 8.517811 19.193012 2.031267 8.833287 -5.080925 0.244251 -8.654893 -3.263120 -4.084996 -17.084776 1.119973 -14.757112 176.486035 -57.055900 -154.523177 -6.332316 -11.325038 -20.084213 -4.941839 -3.021508 2.652012 12.362383 -7.468207 9.526188 170.325940 -68.721984 173.744323 -15.401605 -21.893614 31.629784 -7.949430 -51.925517 3.011142 -14.757371 70.451787 -17.331476 18.137577 11.779450 5.726923 -0.000402 0.000194 -0.000178 -9.261506 -52.167498 -3.030938 37.742615 66.925064 27.670111 2.680345 34.064920 5.047723 -0.001327 0.005335 -0.000588
-23.715136 126.478613 52.392360 -178.833872 -29.691243 -3.301930 -1.531199 19.049645 0.913919 -0.222908 2.201763 0.127137 -0.287614 3.746177 0.218782 -1.417871 16.398404 0.801639 8.316222 19.443298 1.983184 8.616594 -4.812520 0.238668 -8.559658 -3.363279 -4.056190 -16.457330 0.781797 -14.937040 175.855068 -59.229578 -153.563053 -6.443397 -10.903742 -18.959052 -4.921534 -3.017516 2.592025 12.074770 -7.777484 9.476224 172.562897 -70.319072 171.817760 -15.274435 -22.097259 31.481053 -7.960912 -51.908673 3.009286 -14.758479 70.456154 -17.326374 18.132035 11.781004 5.731238 -0.001434 -0.001663 -0.000635 -9.285588 -52.152027 -3.024806 37.757449 66.924066 27.681599 2.676617 34.060484 5.051155 -0.000498 0.003190 -0.000221
-23.716502 126.478088 52.395608 -178.827627 -29.698889 -3.307554 -1.610725 18.955013 0.877262 -0.202575 2.228442 0.130051 -0.319924 3.696339 0.212777 -1.420398 16.422191 0.790315 8.083771 19.722042 1.918409 8.370063 -4.513180 0.222090 -8.456651 -3.451256 -4.021919 -15.705912 0.410860 -15.099883 174.973443 -61.585628 -152.391809 -6.569421 -10.556217 -17.986024 -4.911019 -3.012038 2.530909 11.704050 -8.096127 9.419225 175.127605 -72.032817 169.620966 -15.159076 -22.281006 31.311759 -7.958878 -51.900306 3.002445 -14.779736 70.462116 -17.338938 18.117546 11.775558 5.726047 -0.003437 -0.001191 -0.001523 -9.289689 -52.149104 -3.029560 37.787801 66.927005 27.706994 2.677937 34.051186 5.073730 -0.000586 0.000777 -0.000259
-23.717963 126.477562 52.399306 -178.823881 -29.710088 -3.312013 -1.655330 18.905520 0.852851 -0.183143 2.256089 0.136955 -0.363874 3.627328 0.199692 -1.448410 16.413770 0.774677 7.823686 20.006153 1.848484 8.094671 -4.208774 0.206223 -8.342751 -3.513912 -3.985225 -14.872236 -0.020272 -15.251095 173.925376 -64.108183 -151.055044 -6.733210 -10.294270 -17.187192 -4.907350 -2.997542 2.465578 11.259097 -8.433271 9.367865 177.932006 -73.830962 167.229397 -15.064258 -22.427421 31.111436 -7.946510 -51.884840 2.986115 -14.777247 70.461551 -17.325974 18.125385 11.771365 5.727860 -0.003487 0.000195 -0.001545 -9.272366 -52.140747 -3.042011 37.792569 66.934807 27.704502 2.692472 34.042075 5.105499 -0.005166 0.000451 -0.002289
-23.717717 126.479137 52.399873 -178.810088 -29.748378 -3.332562 -1.711897 18.881986 0.831935 -0.156270 2.284121 0.147257 -0.405107 3.576738 0.184599 -1.493041 16.385098 0.753907 7.540081 20.275973 1.778251 7.793913 -3.921277 0.195256 -8.214692 -3.538412 -3.944022 -14.014986 -0.539125 -15.407840 172.858725 -66.738342 -149.647655 -6.899671 -10.103923 -16.569236 -4.908938 -2.967862 2.388437 10.759318 -8.797382 9.339009 -179.165629 -75.677233 164.762178 -14.974342 -22.525971 30.871085 -7.949127 -51.837809 2.983569 -14.780192 70.457911 -17.319124 18.138899 11.770137 5.730591 -0.002322 -0.002408 -0.001029 -9.253880 -52.101776 -3.057094 37.774527 66.941454 27.703227 2.694340 34.038720 5.115997 -0.004301 -0.002833 -0.001905
-23.718790 126.477746 52.405745 -178.809192 -29.755444 -3.338453 -1.770651 18.827266 0.797839 -0.153249 2.273571 0.146392 -0.423634 3.566011 0.178671 -1.542537 16.357538 0.729921 7.231735 20.521751 1.704945 7.467051 -3.661957 0.186451 -8.068930 -3.522053 -3.891188 -13.210275 -1.136217 -15.586477 171.843077 -69.348013 -148.187229 -7.017653 -9.991624 -16.104919 -4.927761 -2.921124 2.291262 10.240974 -9.185580 9.353854 -176.350869 -77.520596 162.369715 -14.863213 -22.593407 30.604445 -7.945703 -51.824417 2.983256 -14.777730 70.452988 -17.311807 18.138041 11.768481 5.731132 -0.000605 -0.001002 -0.000268 -9.212605 -52.091558 -3.083135 37.744555 66.945153 27.694767 2.698474 34.027392 5.129821 -0.000428 -0.001269 -0.000190
-23.718674 126.477914 52.409108 -178.804674 -29.783175 -3.353620 -1.838267 18.795931 0.765940 -0.206742 2.212687 0.126085 -0.386112 3.607941 0.188981 -1.595879 16.332117 0.703309 6.895849 20.744792 1.624753 7.112119 -3.429489 0.176328 -7.898545 -3.476608 -3.811786 -12.525616 -1.759823 -15.798861 170.775059 -71.762964 -146.541432 -7.068095 -9.996937 -15.743153 -4.972510 -2.867007 2.161583 9.742078 -9.568707 9.446802 -173.781375 -79.288512 160.184491 -14.719929 -22.680903 30.358924 -7.950905 -51.787372 2.986164 -14.757780 70.447822 -17.297033 18.190823 11.761750 5.744002 0.003235 0.000714 0.001433 -9.173875 -52.058984 -3.096518 37.758889 66.957604 27.708898 2.711689 33.982749 5.178614 -0.001109 0.000534 -0.000491
-23.718704 126.478016 52.412682 -178.805759 -29.811678 -3.364870 -1.908527 18.768511 0.727926 -0.190334 2.219700 0.131584 -0.420212 3.584515 0.176330 -1.650370 16.310017 0.675491 6.527552 20.951977 1.532504 6.725228 -3.216026 0.160420 -7.707202 -3.424419 -3.691500 -11.993535 -2.348445 -16.047837 169.500568 -73.822779 -144.551860 -7.060363 -10.108358 -15.425139 -5.053064 -2.820721 1.986415 9.288511 -9.896577 9.650487 -171.577987 -80.895191 158.333181 -14.561300 -22.822742 30.195403 -7.952319 -51.744352 2.995379 -14.758704 70.435693 -17.297990 18.177782 11.756788 5.743262 0.000378 0.005582 0.000167 -9.133455 -52.026780 -3.111995 37.750278 66.969602 27.711690 2.719349 33.953015 5.201435 -0.001074 0.001392 -0.000476
-23.715917 126.480091 52.413120 -178.822285 -29.862967 -3.384978 -1.956456 18.767321 0.707640 -0.217304 2.199075 0.121175 -0.409041 3.593110 0.178095 -1.701112 16.293154 0.648710 6.118891 21.148509 1.420176 6.299690 -3.015921 0.132024 -7.517874 -3.389772 -3.527344 -11.584296 -2.840587 -16.324055 167.868614 -75.416059 -142.121815 -7.008593 -10.267617 -15.092865 -5.186405 -2.787068 1.773006 8.882411 -10.118009 9.963151 -169.907596 -82.254991 157.019419 -14.438799 -22.986626 30.152220 -7.959518 -51.686401 3.029137 -14.767959 70.430209 -17.313029 18.197646 11.759568 5.749556 0.000973 0.001647 0.000431 -9.089578 -51.964880 -3.108161 37.708991 66.977871 27.691864 2.724456 33.932507 5.215141 0.000932 -0.002644 0.000413
